<svg width="79" height="72" viewBox="0 0 79 72" fill="none" xmlns="http://www.w3.org/2000/svg">
<g id="Group 1321314381">
<path id="Vector" d="M54.5243 53.3252C54.1294 56.148 53.2139 60.7009 51.2035 62.7224C48.5469 65.3995 40.6308 68.878 29.7889 71.1544C26.8439 71.7542 23.7857 71.3376 21.101 69.9707C17.9299 68.3748 14.8764 66.5489 11.9644 64.5072C20.4539 65.5002 29.0539 64.7256 37.2383 62.2307C43.4188 60.1853 49.25 57.1812 54.5243 53.3252Z" fill="#FF611D"/>
<path id="Vector_2" d="M22.8958 67.676C24.2108 67.852 25.5366 67.9312 26.8628 67.9128C28.4924 67.8309 30.1069 67.5559 31.6735 67.0933C34.7968 66.4376 37.7765 65.6727 40.5229 64.7986C44.319 63.7292 47.9455 62.1165 51.293 60.0089C51.0202 60.624 50.6503 61.1899 50.1981 61.6844C48.4031 63.5056 43.9873 65.6181 38.3689 67.4211C35.6046 68.2952 32.6248 69.0601 29.5194 69.7157C26.889 70.3308 24.132 70.0491 21.6752 68.9144C20.3533 68.2344 19.0868 67.4489 17.8877 66.5651C19.6827 66.9476 20.4007 67.2754 21.4777 67.4757C21.8726 67.5485 22.483 67.5485 22.8958 67.676Z" fill="#FFB80E"/>
<path id="Vector_3" d="M62.7632 48.4626C62.7632 48.4626 67.7892 45.7673 73.8564 41.7607C77.1233 39.5935 79.4748 37.4081 78.9184 35.7873C78.2901 33.7658 73.6949 35.4777 68.6329 38.0455C64.9343 39.9621 61.4953 42.3555 58.4013 45.1663C50.3138 44.8126 42.2252 45.8407 34.4736 48.2077C25.1276 51.3063 16.5031 56.3072 9.12793 62.9045C18.9148 64.0569 28.8306 63.1581 38.2611 60.2638C45.3754 57.9285 52.0816 54.4682 58.132 50.0106C57.6833 53.2705 56.6242 58.4972 54.3266 60.8101C51.2571 63.9061 42.1563 67.9127 29.6809 70.517C26.2953 71.219 22.7756 70.7509 19.6827 69.1875C16.0348 67.3472 12.5198 65.2477 9.16383 62.9045C11.7817 65.1901 14.5793 67.2548 17.5286 69.0782C21.4718 71.5028 26.1229 72.462 30.6861 71.7918C34.1837 71.2594 37.6348 70.4496 41.0075 69.3696C46.3892 67.6129 51.5422 65.2036 56.3549 62.1942C59.1298 57.9529 61.288 53.3282 62.7632 48.4626ZM55.3318 48.1894C55.96 50.2109 47.9901 54.5453 37.5072 57.878C27.0243 61.2108 18.0492 62.2671 17.4209 60.2638C16.7927 58.2605 24.4395 52.7788 34.9044 49.446C45.3694 46.1133 54.7035 46.1497 55.3318 48.1894Z" fill="#415A77"/>
<path id="Vector_4" d="M7.65657 34.4216L8.15917 34.8769C7.72837 34.2759 8.03352 33.8752 8.42842 33.4381C8.82333 33.001 9.25413 32.4183 9.75674 31.8173L10.9235 33.0921H11.0133L10.0619 31.4895C10.7081 30.7974 11.3364 30.1236 11.9826 29.468C12.2518 29.1766 12.557 28.9216 12.898 28.612L14.4238 30.2511H14.5494L13.4904 28.4299C13.9228 28.1185 14.4451 27.9619 14.9749 27.985C15.5046 28.0081 16.0118 28.2095 16.4163 28.5574C16.881 28.8824 17.2332 29.3474 17.4233 29.8866C17.6133 30.4259 17.6315 31.012 17.4753 31.5623L17.0086 31.1252C17.4574 32.0176 17.224 32.4729 15.8598 33.4381L14.9085 32.3454L14.7828 32.4547L15.5367 33.8024C14.3879 34.3669 13.2929 34.9133 12.1621 35.4414C12.0723 35.4414 11.839 35.4414 11.7492 35.2775C11.5846 35.0711 11.4459 34.8448 11.3364 34.6037L11.103 34.8222L11.4979 35.7328L4.08447 38.9563L7.65657 34.4216ZM13.4186 32.3636L13.5622 32.2362C13.4905 31.8169 13.3071 31.4255 13.0318 31.1045C12.7565 30.7835 12.3999 30.545 12.0005 30.415L13.4186 32.3636Z" fill="#415A77"/>
<path id="Vector_5" d="M35.1733 37.7361C35.6088 37.8059 36.0193 37.9883 36.3651 38.2658C36.711 38.5434 36.9805 38.9066 37.1478 39.3205C37.3626 39.7845 37.4314 40.3045 37.3447 40.8095C37.258 41.3146 37.02 41.7803 36.6631 42.1433C36.3136 42.5042 35.891 42.7838 35.4246 42.9628C33.6503 43.487 31.9712 44.2988 30.4524 45.3668C30.2119 45.5893 29.9062 45.7257 29.582 45.7553C29.2579 45.7849 28.9331 45.706 28.6573 45.5307C28.4898 45.4323 28.3442 45.2998 28.2297 45.1414C28.1152 44.9831 28.0343 44.8023 27.9921 44.6107C27.95 44.419 27.9474 44.2205 27.9847 44.0278C28.0219 43.8351 28.0982 43.6523 28.2086 43.491C28.5665 42.9368 29.0231 42.4551 29.5548 42.0705C30.8298 41.2619 31.944 40.2179 32.8397 38.9927C33.0907 38.5987 33.4369 38.2764 33.8454 38.0564C34.2538 37.8365 34.7109 37.7262 35.1733 37.7361Z" fill="#FF0F0F"/>
<path id="Vector_6" d="M17.0621 39.8667C17.6186 40.759 18.552 40.6133 19.3418 40.8319C19.3418 40.8319 19.7008 40.4859 19.7008 40.3037C19.7008 39.7574 19.5393 39.211 19.4495 38.5736L20.3829 38.0819C20.8156 38.9102 21.0256 39.8395 20.9917 40.7763C20.9579 41.7132 20.6813 42.6244 20.19 43.4183C19.6987 44.2122 19.0098 44.8608 18.1929 45.2987C17.3759 45.7366 16.4597 45.9485 15.5364 45.9129C14.6156 45.8805 13.7202 45.5981 12.9436 45.0952C12.1669 44.5924 11.5374 43.8874 11.1206 43.0537L12.2156 42.4709C12.4848 42.8716 12.7182 43.2722 12.9874 43.6183C13.2567 43.9643 13.6157 44.11 13.9029 43.6183C13.9586 43.5257 14.0249 43.4401 14.1003 43.3633C14.419 43.1322 14.6365 42.7845 14.7068 42.3936C14.7772 42.0027 14.6949 41.5994 14.4773 41.269L17.0621 39.8667ZM18.3725 41.9064C17.9417 41.706 17.5288 41.269 16.8288 41.5603C16.1287 41.8517 15.4466 42.4163 15.5364 43.3815C15.5617 43.5566 15.5617 43.7345 15.5364 43.9097C15.4466 44.4378 15.7159 44.6563 16.1646 44.4742C17.0108 44.1587 17.8228 43.7559 18.5879 43.2722C19.3598 42.7441 19.288 42.4891 18.3725 41.9064Z" fill="#415A77"/>
<path id="Vector_7" d="M17.8878 24.9878L17.3852 24.8421L17.08 24.7146C17.1746 24.3826 17.2289 24.0401 17.2416 23.6948C17.2416 23.5491 17.0082 23.2941 16.8826 23.3123C16.2543 23.3123 15.5543 23.3123 15.3389 24.059L13.3464 23.4762C13.5797 22.7295 13.0412 22.3107 12.772 21.8008C12.6964 21.7637 12.6136 21.7444 12.5296 21.7444C12.4457 21.7444 12.3629 21.7637 12.2873 21.8008C12.0145 22.1045 11.7626 22.427 11.5334 22.766L10.8872 22.5292C11.0463 22.0629 11.2944 21.6329 11.6173 21.2638C11.9402 20.8947 12.3316 20.5938 12.7692 20.3781C13.2067 20.1625 13.6818 20.0365 14.1674 20.0071C14.653 19.9778 15.1395 20.0458 15.5991 20.2072C16.0588 20.3687 16.4826 20.6204 16.8464 20.948C17.2102 21.2756 17.5068 21.6727 17.7193 22.1166C17.9319 22.5605 18.0561 23.0426 18.085 23.5352C18.1139 24.0278 18.0469 24.5214 17.8878 24.9878ZM14.7106 22.8752C15.0292 22.9135 15.3522 22.8644 15.6458 22.7331C15.9394 22.6018 16.1929 22.393 16.38 22.1286C16.4026 22.0628 16.4062 21.9918 16.3903 21.924C16.3744 21.8562 16.3397 21.7945 16.2902 21.7461C15.6572 21.2002 14.8396 20.9258 14.0105 20.9812C13.9375 20.9998 13.87 21.0359 13.8137 21.0867C13.7575 21.1374 13.7141 21.2012 13.6874 21.2726C13.6568 21.6173 13.741 21.9625 13.9265 22.253C14.1119 22.5436 14.388 22.7626 14.7106 22.8752Z" fill="#415A77"/>
<path id="Vector_8" d="M10.7068 8.23271C10.7068 8.43304 10.6171 8.59695 10.5632 8.76085C10.5094 8.92476 10.5632 8.96118 10.4376 9.07045C10.1089 8.97758 9.77235 8.9166 9.43235 8.88833C9.28875 8.88833 9.03744 9.1433 9.05539 9.27078C9.05539 9.88998 9.05539 10.6184 9.8093 10.8188L9.14515 12.9131C8.40919 12.6582 7.99633 13.2227 7.49373 13.4959C7.49373 13.4959 7.49373 13.8783 7.49373 13.9876C7.79673 14.2601 8.11434 14.5155 8.44509 14.7525L8.21173 15.4081C7.74735 15.2419 7.31979 14.9845 6.95346 14.6507C6.58712 14.3168 6.28919 13.913 6.07667 13.4623C5.86414 13.0116 5.7412 12.5229 5.71485 12.024C5.68849 11.5251 5.75925 11.0258 5.92308 10.5547C6.08691 10.0836 6.3406 9.64977 6.66967 9.27809C6.99874 8.90642 7.39674 8.60415 7.84095 8.38853C8.28516 8.17291 8.76688 8.04818 9.25861 8.02144C9.75033 7.99471 10.2424 8.0665 10.7068 8.23271ZM8.55279 11.4744C8.59387 11.1482 8.54715 10.8168 8.41757 10.5154C8.288 10.214 8.0804 9.95385 7.81683 9.76249C7.74999 9.74759 7.68055 9.74976 7.61475 9.76884C7.54895 9.78791 7.48886 9.82328 7.43988 9.87176C6.90452 10.5084 6.63416 11.3313 6.68597 12.1664C6.70423 12.2405 6.73989 12.309 6.7899 12.3661C6.83991 12.4232 6.90279 12.4672 6.97317 12.4942C7.31172 12.5331 7.65317 12.4531 7.94061 12.2675C8.22805 12.0819 8.44412 11.802 8.55279 11.4744Z" fill="#415A77"/>
<path id="Vector_9" d="M25.319 36.2424C24.6015 36.2415 23.9007 36.0225 23.307 35.6136C22.7134 35.2048 22.2541 34.6248 21.9885 33.9486C21.7229 33.2724 21.663 32.5309 21.8167 31.8199C21.9704 31.1088 22.3306 30.4608 22.8508 29.9594C23.371 29.458 24.0273 29.1263 24.7351 29.007C25.4429 28.8877 26.1697 28.9863 26.8217 29.2901C27.4738 29.594 28.0211 30.089 28.3932 30.7115C28.7652 31.3339 28.9449 32.0552 28.909 32.7822C28.8629 33.7163 28.4644 34.5966 27.7961 35.2408C27.1278 35.885 26.2408 36.2436 25.319 36.2424ZM25.319 30.1962C24.8318 30.1962 24.3556 30.343 23.9509 30.6179C23.5461 30.8929 23.2309 31.2837 23.0453 31.7406C22.8597 32.1976 22.8121 32.7002 22.9084 33.1846C23.0048 33.6691 23.2408 34.1136 23.5865 34.4618C23.9322 34.81 24.3721 35.0462 24.8503 35.1404C25.3285 35.2346 25.8235 35.1826 26.2725 34.991C26.7216 34.7993 27.1044 34.4767 27.3724 34.064C27.6405 33.6513 27.7817 33.1672 27.7781 32.6729C27.7691 32.0252 27.5139 31.4059 27.0658 30.9444C26.6176 30.4829 26.0111 30.2149 25.3728 30.1962H25.319Z" fill="#415A77"/>
<path id="Vector_10" d="M21.8541 14.7345C22.4462 14.7345 23.0251 14.9124 23.5177 15.2458C24.0102 15.5792 24.3945 16.0531 24.6219 16.6078C24.8493 17.1625 24.9097 17.7731 24.7955 18.3625C24.6812 18.952 24.3975 19.4939 23.9801 19.92C23.5626 20.346 23.0302 20.6371 22.4499 20.7565C21.8696 20.8759 21.2674 20.8183 20.7193 20.5909C20.1713 20.3635 19.7019 19.9765 19.3703 19.4788C19.0388 18.981 18.86 18.3948 18.8564 17.7941C18.8611 16.9872 19.1779 16.2145 19.7385 15.6422C20.2992 15.07 21.0589 14.744 21.8541 14.7345ZM21.8541 19.9066C22.2699 19.8918 22.6719 19.7521 23.0093 19.5051C23.3467 19.2582 23.6041 18.9151 23.7491 18.5195C23.894 18.1239 23.9199 17.6935 23.8234 17.2829C23.7269 16.8724 23.5124 16.5002 23.2071 16.2134C22.9018 15.9267 22.5195 15.7385 22.1086 15.6726C21.6977 15.6066 21.2767 15.666 20.8991 15.8431C20.5215 16.0202 20.2043 16.3071 19.9876 16.6674C19.7709 17.0277 19.6646 17.4452 19.6822 17.8669C19.6891 18.1507 19.7514 18.4303 19.8655 18.6896C19.9796 18.9488 20.1431 19.1826 20.3468 19.3773C20.5504 19.572 20.79 19.7239 21.0518 19.8241C21.3136 19.9244 21.5924 19.971 21.8721 19.9613L21.8541 19.9066Z" fill="#415A77"/>
<path id="Vector_11" d="M45.0814 35.3864C45.5749 35.3828 46.0583 35.5278 46.4705 35.8029C46.8828 36.0781 47.2054 36.4711 47.3975 36.9323C47.5896 37.3934 47.6426 37.902 47.5499 38.3938C47.4571 38.8855 47.2226 39.3383 46.8762 39.6948C46.5298 40.0514 46.0869 40.2957 45.6037 40.3969C45.1204 40.4981 44.6184 40.4517 44.1611 40.2634C43.7038 40.0752 43.3119 39.7536 43.0348 39.3393C42.7576 38.925 42.6078 38.4367 42.6043 37.9361C42.5995 37.603 42.6601 37.2722 42.7824 36.9631C42.9048 36.654 43.0865 36.3726 43.317 36.1354C43.5475 35.8981 43.8222 35.7097 44.1251 35.5811C44.428 35.4526 44.7531 35.3864 45.0814 35.3864ZM46.8764 37.9178C46.8764 37.5576 46.7711 37.2055 46.5739 36.9061C46.3767 36.6066 46.0963 36.3731 45.7683 36.2353C45.4403 36.0975 45.0794 36.0614 44.7312 36.1317C44.383 36.2019 44.0632 36.3754 43.8121 36.6301C43.5611 36.8848 43.3901 37.2093 43.3209 37.5626C43.2516 37.9158 43.2871 38.282 43.423 38.6148C43.5589 38.9475 43.7889 39.232 44.0841 39.4321C44.3793 39.6322 44.7264 39.739 45.0814 39.739C45.5481 39.7248 45.9909 39.5267 46.316 39.1867C46.6411 38.8467 46.8228 38.3915 46.8226 37.9178H46.8764Z" fill="#415A77"/>
<path id="Vector_12" d="M34.4736 30.7608L34.6711 30.6151L35.0121 30.433C35.407 30.7426 35.7301 31.1797 36.0892 31.2343C36.4482 31.289 36.861 30.1052 36.7174 29.4132L38.297 28.5026L39.9125 29.0125C40.2716 29.1218 40.4152 29.0125 40.3613 28.5936C40.3075 28.1748 40.2357 27.8652 40.1639 27.4645L40.7024 27.1549C41.1821 27.9841 41.3193 28.9721 41.0839 29.9035C40.8485 30.8349 40.2597 31.634 39.4458 32.1267C39.0328 32.3755 38.5747 32.5376 38.0988 32.6035C37.6229 32.6694 37.1387 32.6377 36.6751 32.5103C36.2114 32.383 35.7777 32.1625 35.3996 31.862C35.0214 31.5615 34.7066 31.187 34.4736 30.7608ZM39.4279 29.7045C39.0716 29.6416 38.7072 29.6416 38.3509 29.7045C38.1681 29.7545 37.998 29.8436 37.852 29.9657C37.7059 30.0879 37.5872 30.2403 37.504 30.4127C37.4207 30.5852 37.3747 30.7737 37.369 30.9656C37.3634 31.1576 37.3983 31.3485 37.4713 31.5257C37.5158 31.6048 37.5818 31.6691 37.6613 31.7111C37.7409 31.7531 37.8308 31.7709 37.9201 31.7625C38.4849 31.5596 39.0218 31.2842 39.5176 30.9429C40.092 30.4148 40.0382 30.2145 39.4279 29.7045Z" fill="#415A77"/>
<path id="Vector_13" d="M35.6762 37.5354C35.4451 37.3734 35.2288 37.1906 35.03 36.9891C34.8905 36.7672 34.6981 36.5846 34.4707 36.4581C34.2432 36.3316 33.988 36.2653 33.7286 36.2653C33.4692 36.2653 33.214 36.3316 32.9866 36.4581C32.7591 36.5846 32.5668 36.7672 32.4272 36.9891C31.9964 37.499 31.6913 38.1182 31.2964 38.6828C30.8672 39.2155 30.4715 39.7751 30.1117 40.3583C30.5784 39.8848 31.063 39.4295 31.5118 38.9195C31.9605 38.4096 32.4452 37.6447 32.9837 37.0984C33.5222 36.552 34.1684 36.6795 34.6351 37.4444C33.4324 37.6265 32.8401 38.5553 32.1041 39.3748C31.3557 40.1436 30.5582 40.8614 29.7168 41.5238C29.0705 42.0884 28.3884 42.6347 27.7063 43.1811C27.2396 42.6529 27.2576 42.0702 27.9038 41.3599C28.55 40.6496 28.9808 40.504 29.4116 39.994C30.1296 39.1745 30.7579 38.2821 31.422 37.408C31.6223 37.1229 31.838 36.8493 32.0682 36.5884C32.2724 36.297 32.5485 36.0651 32.8689 35.9161C33.1893 35.7671 33.5426 35.7061 33.8936 35.7393C34.2445 35.7725 34.5806 35.8987 34.8683 36.1053C35.156 36.3118 35.3851 36.5915 35.5326 36.9163C35.6487 37.0769 35.7508 37.2476 35.8378 37.4262L35.6762 37.5354Z" fill="#FF0F0F" fill-opacity="0.83"/>
<path id="Vector_14" d="M37.5245 42.0521C37.8835 42.7259 37.7399 43.2176 36.9681 43.5272C36.1962 43.8368 35.173 44.201 34.2037 44.5471C33.8734 44.662 33.5685 44.8414 33.3062 45.0752C34.5986 44.6563 35.909 44.3103 37.1835 43.8368C38.4579 43.3633 38.422 42.6713 37.9374 41.6332C37.8408 41.3499 37.7746 41.0568 37.7399 40.759C37.9598 40.8834 38.1514 41.0533 38.3023 41.2577C38.4532 41.4621 38.5601 41.6965 38.616 41.9455C38.6718 42.1945 38.6754 42.4527 38.6266 42.7032C38.5777 42.9538 38.4774 43.1911 38.3323 43.3997C37.9443 43.9042 37.411 44.2734 36.8065 44.456C34.9769 44.9531 33.2159 45.6811 31.565 46.6232C31.4284 46.7303 31.2709 46.8068 31.103 46.8476C30.935 46.8885 30.7604 46.8927 30.5908 46.86C30.4211 46.8272 30.2602 46.7584 30.1188 46.6579C29.9773 46.5575 29.8584 46.4277 29.77 46.2772C31.5952 45.0402 33.5675 44.0427 35.6397 43.3087C36.3279 42.9905 36.9636 42.5667 37.5245 42.0521Z" fill="#FF0F0F" fill-opacity="0.83"/>
<path id="Vector_15" d="M5.53734 22.6021C6.03995 23.367 6.5964 24.1137 7.04516 24.915C7.11692 25.0199 7.16657 25.1388 7.19101 25.2641C7.21545 25.3894 7.21415 25.5184 7.18719 25.6432C7.16024 25.768 7.10821 25.8858 7.03435 25.9892C6.9605 26.0927 6.86641 26.1795 6.75796 26.2444C6.55846 26.4117 6.30774 26.5032 6.04892 26.5032C5.7901 26.5032 5.53938 26.4117 5.33989 26.2444C5.06207 26.0286 4.84027 25.7473 4.69368 25.4249C4.29878 24.5143 3.97567 23.6037 3.61667 22.6567C3.45512 22.2378 3.77822 22.0739 4.02952 21.8736C4.28083 21.6733 4.51418 21.6187 4.76548 21.8736C5.01678 22.1286 5.21424 22.3471 5.44759 22.5839L5.53734 22.6021Z" fill="#FF611D"/>
<path id="Vector_16" d="M1.57094 23.3668C1.27336 22.7642 1.20747 22.0708 1.38612 21.4216C1.56476 20.7724 1.97515 20.2139 2.53737 19.8549C3.09959 19.4958 3.7734 19.3619 4.4276 19.4792C5.0818 19.5964 5.66956 19.9565 6.07644 20.4894C5.12397 20.4352 4.17847 20.6831 3.37113 21.1987C2.5638 21.7143 1.93464 22.472 1.57094 23.3668Z" fill="#FFA412"/>
<path id="Vector_17" d="M4.92798 20.9448L5.91524 20.6898V20.8355L5.32288 21.2908L6.04089 21.0723L5.43059 21.7097C5.43059 21.7097 5.43059 21.8372 5.43059 21.8918C5.43059 21.9464 5.32288 22.0193 5.32288 22.0193C5.22554 21.9566 5.13525 21.8833 5.05363 21.8007C4.92055 21.7068 4.76826 21.6445 4.60814 21.6185C4.44802 21.5926 4.2842 21.6037 4.12889 21.651C3.97358 21.6982 3.83079 21.7805 3.71118 21.8915C3.59157 22.0026 3.49823 22.1397 3.43811 22.2924C3.44805 22.6514 3.5085 23.0071 3.61761 23.3487L3.18681 23.1848C3.09577 23.3204 2.98709 23.443 2.8637 23.5491C2.66424 23.6068 2.45286 23.6068 2.2534 23.5491L2.5047 23.2577C2.60065 23.1669 2.6744 23.0546 2.7201 22.9299L1.94824 23.4216C1.94824 22.8752 2.10979 22.6203 2.91755 22.3289L2.5765 22.2014C2.9355 21.7097 3.15091 21.564 3.47401 21.6004C3.67146 21.0723 4.20997 21.0541 4.60488 20.8719C4.71475 20.8849 4.82302 20.9093 4.92798 20.9448Z" fill="#CBDF46"/>
<path id="Vector_18" d="M18.6062 27.4828C19.6858 26.9299 20.6256 26.1323 21.3526 25.1517C21.5508 24.947 21.809 24.8128 22.0885 24.7693C21.2759 26.2004 20.1749 27.4415 18.8575 28.4116L20.132 28.2659C19.5755 29.1947 18.5164 29.0672 18.0318 29.7957L16.7573 27.9745L19.4499 25.8984L19.6114 26.0805L18.6062 27.4828Z" fill="#415A77"/>
<path id="Vector_19" d="M22.357 5.35538C22.5186 5.08221 22.8776 4.57228 23.1648 4.02593C23.452 3.47958 23.9366 3.57064 24.4033 3.69812C24.87 3.8256 25.1752 4.09878 25.0495 4.66334C24.7444 6.19312 24.529 7.74111 24.152 9.25268C24.1172 9.62341 23.9504 9.96853 23.6827 10.2233C23.415 10.4782 23.0649 10.6251 22.6981 10.6368C22.3879 10.6518 22.0792 10.585 21.8021 10.4427C21.5251 10.3005 21.2891 10.0878 21.1172 9.82543C20.9454 9.56303 20.8436 9.25989 20.8218 8.94563C20.8 8.63137 20.8589 8.31675 20.9928 8.0325C21.3986 7.11534 21.8541 6.22161 22.357 5.35538Z" fill="#FF611D"/>
<path id="Vector_20" d="M27.7961 4.68169C27.0138 3.58328 25.9167 2.75617 24.6545 2.31298C23.3921 1.86979 22.0259 1.83205 20.7417 2.2049C21.1327 1.34943 21.8228 0.671684 22.6783 0.302991C23.5338 -0.0657034 24.4937 -0.0990939 25.372 0.209288C26.2503 0.517671 26.9846 1.14587 27.4324 1.97215C27.8803 2.79844 28.0099 3.76398 27.7961 4.68169Z" fill="#FFA412"/>
<path id="Vector_21" d="M27.3835 4.86376L26.3963 4.59059L27.1322 5.11873V5.28263H26.2527H25.427C25.418 5.15531 25.418 5.02751 25.427 4.90019C25.4607 4.66048 25.4358 4.41603 25.3544 4.1884C25.273 3.96078 25.1377 3.75698 24.9603 3.59499C24.7829 3.43301 24.5689 3.31782 24.3372 3.2596C24.1056 3.20137 23.8634 3.2019 23.6319 3.26113C23.3088 3.26113 23.0575 3.77106 22.7703 4.02602C22.6259 4.12121 22.4687 4.19481 22.3036 4.24456V3.93497L20.9035 3.38862V3.13365H21.801V3.04259L20.7061 2.64194C21.3164 2.1138 21.6574 2.1138 22.7703 2.64194L22.5549 2.20486C23.237 1.93168 23.7217 2.40518 24.2602 2.56909C24.9278 2.68294 25.5501 2.98598 26.0552 3.44325C26.4681 4.08066 27.2758 4.04424 27.3835 4.86376Z" fill="#CBDF46"/>
<path id="Vector_22" d="M39.8936 43.363L41.8501 41.7422L43.4297 43.7273L41.4911 45.3299L39.8936 43.363Z" fill="#415A77"/>
<path id="Vector_23" d="M16.7028 7.99622L18.2465 10.127L16.1822 12.2031L14.3872 9.92666L16.7028 7.99622Z" fill="#415A77"/>
<path id="Vector_24" d="M37.6321 21.2726L38.5835 24.1682L35.7294 25.1335C35.532 24.2593 35.3166 23.4398 35.1909 22.6202C35.1909 22.4746 35.3525 22.2014 35.4961 22.1285C36.1064 21.8189 36.8064 21.564 37.6321 21.2726Z" fill="#415A77"/>
<path id="Vector_25" d="M31.6377 34.4223V31.9991H34.043V34.1126L31.6377 34.4223Z" fill="#415A77"/>
<path id="Vector_26" d="M6.14795 42.5811V40.2308H8.48148V42.326L6.14795 42.5811Z" fill="#415A77"/>
<path id="Vector_27" d="M25.4267 49.5733C22.7469 51.6557 19.5558 52.9532 16.2003 53.3249C13.8162 53.5661 11.412 53.1575 9.23558 52.1412C8.56919 51.7936 7.96294 51.3385 7.44056 50.7935C7.1222 50.4857 6.89099 50.097 6.77103 49.6678C6.65106 49.2386 6.64672 48.7846 6.75845 48.3531C6.7869 48.1441 6.85622 47.9429 6.96235 47.7614C7.06849 47.5799 7.2093 47.4217 7.37651 47.2961C7.54372 47.1706 7.73397 47.0802 7.93608 47.0303C8.13819 46.9804 8.3481 46.9719 8.55348 47.0055C9.17363 47.1222 9.77675 47.318 10.3485 47.5882C13.2366 49.1391 16.4203 50.0398 19.6826 50.2289C21.4136 50.1431 23.1391 49.9669 24.8523 49.7008C25.0677 49.6826 25.2113 49.6097 25.4267 49.5733ZM9.80999 48.2985C11.3896 50.8299 16.5593 51.4673 19.5749 50.8845C16.1708 50.7705 12.8347 49.887 9.80999 48.2985Z" fill="#659C35"/>
<path id="Vector_28" d="M6.36335 47.8978V49.719C6.36335 49.719 6.2377 49.719 6.2018 49.719C5.95322 49.426 5.63412 49.2032 5.27553 49.0723C4.91694 48.9415 4.53108 48.907 4.15548 48.9723C3.22991 49.0354 2.36019 49.4441 1.71425 50.1197C1.24754 50.666 0.870586 51.2852 0.457731 51.9408C-0.152577 51.3581 -0.152577 51.3034 0.457731 50.6478C1.53001 49.5301 2.91479 48.7736 4.42473 48.4806L6.36335 47.8978Z" fill="#415A77"/>
<path id="Vector_29" d="M37.8663 39.7573L36.52 37.6994C36.8461 37.7875 37.1644 37.9032 37.4714 38.0454C37.6314 38.1414 37.8206 38.174 38.0028 38.137C38.185 38.1 38.3473 37.9961 38.4586 37.8451C38.7279 37.5173 38.9972 37.2077 39.2485 36.8617C39.3201 36.743 39.4142 36.6399 39.5252 36.5583C39.6363 36.4766 39.7621 36.418 39.8956 36.3859C40.029 36.3537 40.1674 36.3486 40.3028 36.3709C40.4382 36.3932 40.5679 36.4424 40.6845 36.5157C40.5588 36.6614 40.4691 36.8435 40.3973 36.8253C39.6254 36.8253 39.3203 37.2988 39.0151 37.8451C38.7099 38.3915 38.6381 38.6464 38.4227 39.0289C38.2543 39.2846 38.0684 39.5281 37.8663 39.7573Z" fill="#415A77"/>
<path id="Vector_30" d="M27.1683 26.7539C26.8678 26.717 26.591 26.5697 26.3903 26.3399C26.1895 26.11 26.0786 25.8135 26.0786 25.5064C26.0786 25.1993 26.1895 24.9028 26.3903 24.673C26.591 24.4431 26.8678 24.2958 27.1683 24.2589C27.4861 24.2726 27.7868 24.408 28.01 24.6379C28.2332 24.8677 28.3622 25.1748 28.371 25.4973C28.3734 25.6599 28.3442 25.8215 28.285 25.9726C28.2258 26.1238 28.1379 26.2617 28.0262 26.3784C27.9145 26.495 27.7813 26.5883 27.6341 26.6527C27.4869 26.7172 27.3286 26.7515 27.1683 26.7539Z" fill="#415A77"/>
<path id="Vector_31" d="M11.3716 15.1895C11.5354 15.2008 11.6952 15.2456 11.8415 15.321C11.9879 15.3964 12.1177 15.501 12.2233 15.6285C12.3288 15.756 12.408 15.9038 12.456 16.0631C12.5039 16.2224 12.5198 16.3898 12.5025 16.5554C12.4954 16.718 12.4568 16.8776 12.389 17.0252C12.3211 17.1727 12.2252 17.3052 12.1069 17.4151C11.9885 17.525 11.85 17.6102 11.6992 17.6658C11.5484 17.7214 11.3883 17.7463 11.228 17.7392C11.0677 17.732 10.9104 17.6928 10.765 17.624C10.6196 17.5551 10.489 17.4579 10.3807 17.3378C10.2723 17.2177 10.1884 17.0772 10.1336 16.9242C10.0787 16.7712 10.0542 16.6088 10.0612 16.4461C10.0583 16.274 10.0907 16.1032 10.1565 15.9445C10.2223 15.7858 10.3199 15.6428 10.4432 15.5246C10.5665 15.4063 10.7128 15.3155 10.8726 15.2578C11.0325 15.2001 11.2024 15.1768 11.3716 15.1895Z" fill="#415A77"/>
<path id="Vector_32" d="M5.57401 30.3236C5.57167 30.4887 5.53731 30.6516 5.4729 30.8031C5.40848 30.9547 5.31527 31.0919 5.19859 31.2069C5.08191 31.3219 4.94404 31.4124 4.79286 31.4734C4.64168 31.5343 4.48015 31.5644 4.31749 31.562C4.02155 31.5254 3.74904 31.3802 3.55139 31.1537C3.35375 30.9272 3.24463 30.6352 3.24463 30.3327C3.24463 30.0303 3.35375 29.7382 3.55139 29.5118C3.74904 29.2853 4.02155 29.1401 4.31749 29.1034C4.47928 29.0986 4.64041 29.1264 4.79149 29.1854C4.94257 29.2443 5.08059 29.3331 5.19752 29.4467C5.31445 29.5602 5.40796 29.6962 5.47259 29.8468C5.53722 29.9973 5.5717 30.1594 5.57401 30.3236Z" fill="#415A77"/>
<path id="Vector_33" d="M25.7314 45.4756C25.7268 45.6423 25.6896 45.8063 25.6219 45.9582C25.5542 46.1101 25.4573 46.2468 25.3371 46.3603C25.2168 46.4739 25.0754 46.562 24.9213 46.6196C24.7671 46.6772 24.6031 46.7031 24.439 46.6958C24.2675 46.7077 24.0954 46.6828 23.9341 46.6226C23.7727 46.5624 23.6258 46.4683 23.5028 46.3465C23.3797 46.2247 23.2835 46.0778 23.2203 45.9157C23.1571 45.7535 23.1283 45.5796 23.136 45.4053C23.1436 45.2311 23.1874 45.0605 23.2646 44.9046C23.3417 44.7487 23.4504 44.6112 23.5836 44.5009C23.7168 44.3906 23.8714 44.3101 24.0374 44.2647C24.2034 44.2193 24.3769 44.2099 24.5467 44.2372C24.8641 44.2467 25.1655 44.3813 25.3867 44.6126C25.6079 44.8438 25.7315 45.1534 25.7314 45.4756Z" fill="#415A77"/>
<path id="Vector_34" d="M26.4324 13.4605C26.3011 13.4558 26.1721 13.4247 26.0528 13.3688C25.9336 13.3129 25.8265 13.2334 25.7379 13.135C25.6494 13.0366 25.581 12.9212 25.5369 12.7957C25.4927 12.6701 25.4738 12.5369 25.481 12.4038C25.4832 12.2762 25.5108 12.1503 25.5621 12.0338C25.6134 11.9173 25.6874 11.8125 25.7796 11.7257C25.8718 11.6389 25.9803 11.572 26.0987 11.5288C26.217 11.4857 26.3427 11.4672 26.4683 11.4746C26.5995 11.4769 26.7289 11.5058 26.849 11.5595C26.9691 11.6132 27.0774 11.6907 27.1677 11.7874C27.2579 11.884 27.3283 11.998 27.3746 12.1226C27.421 12.2473 27.4424 12.38 27.4376 12.5131C27.4154 12.7693 27.3003 13.0081 27.1146 13.1831C26.9288 13.3581 26.6858 13.457 26.4324 13.4605Z" fill="#415A77"/>
<path id="Vector_35" d="M32.9663 27.5738C32.7433 27.722 32.4924 27.8216 32.2294 27.8661C31.9665 27.9106 31.6972 27.8991 31.4389 27.8323C31.1806 27.7655 30.9388 27.6449 30.7289 27.4781C30.519 27.3113 30.3457 27.102 30.2199 26.8635C29.8796 26.2351 29.7238 25.521 29.7711 24.8056C30.023 22.1139 29.9143 19.3999 29.448 16.7378C29.3992 16.1795 29.5384 15.621 29.8429 15.1534C29.9854 14.9418 30.1742 14.7667 30.3945 14.6416C30.6149 14.5166 30.8609 14.4451 31.1131 14.4327C31.3653 14.4204 31.6169 14.4675 31.8481 14.5704C32.0793 14.6733 32.2839 14.8293 32.4457 15.0259C32.8122 15.3966 33.0839 15.8525 33.2372 16.354C33.3905 16.8554 33.4207 17.3873 33.3253 17.9033C33.0862 19.1772 32.7745 20.4359 32.3919 21.6732C32.0867 22.7112 31.62 23.6947 31.3328 24.7327C30.7764 26.6085 31.1354 27.1731 32.9663 27.5738ZM31.7636 15.4266C32.2772 17.2105 32.2772 19.1062 31.7636 20.8901C32.9842 18.7775 32.9842 16.5557 31.7636 15.4266Z" fill="#415A77"/>
<path id="Vector_36" d="M31.5116 14.006L30.0935 14.352C30.1836 13.6823 30.2196 13.0062 30.2012 12.3305C30.0792 11.5904 29.9052 10.8601 29.6807 10.1451L30.4346 10.2908C30.4346 11.0375 30.4346 11.7296 30.4346 12.4398C30.4346 13.1501 30.5961 13.7511 31.5116 14.006Z" fill="#415A77"/>
</g>
</svg>
