<svg width="15" height="14" viewBox="0 0 15 14" fill="none" xmlns="http://www.w3.org/2000/svg">
<path d="M6.82999 1.10382L5.04113 0.209389L5.03708 0.217495L5.0331 0.225637L6.82999 1.10382ZM8.28239 1.10382L6.47812 1.96673L6.48439 1.97984L6.49085 1.99285L8.28239 1.10382ZM9.96412 4.49276L8.17258 5.38179L8.63956 6.32282L9.67938 6.47239L9.96412 4.49276ZM13.6843 5.02785L13.9884 3.05111L13.9788 3.04962L13.9691 3.04823L13.6843 5.02785ZM14.1175 6.4293L15.518 7.85704L15.5249 7.85031L15.5317 7.84351L14.1175 6.4293ZM11.442 9.05382L10.0415 7.62607L9.29293 8.36034L9.47109 9.39363L11.442 9.05382ZM12.079 12.7485L14.0558 12.4444L14.053 12.4265L14.0499 12.4087L12.079 12.7485ZM10.8814 13.6149L9.94378 15.3815L9.95003 15.3848L9.9563 15.388L10.8814 13.6149ZM7.56893 11.8567L8.50658 10.0901L7.57251 9.59434L6.63688 10.0872L7.56893 11.8567ZM4.23095 13.6149L5.15609 15.3881L5.163 15.3844L4.23095 13.6149ZM3.03335 12.7485L1.06243 12.4087L1.05936 12.4265L1.05661 12.4444L3.03335 12.7485ZM3.67037 9.05382L5.64129 9.39363L5.81945 8.36034L5.07092 7.62607L3.67037 9.05382ZM0.994892 6.4293L-0.419322 7.84351L-0.412523 7.85031L-0.405659 7.85704L0.994892 6.4293ZM1.42806 5.02785L1.14522 3.04795L1.13458 3.04948L1.12395 3.05111L1.42806 5.02785ZM5.17374 4.49276L5.45658 6.47266L6.50542 6.32282L6.97063 5.37094L5.17374 4.49276ZM8.61884 1.99824C8.1743 2.88733 6.91009 2.86994 6.47812 1.96673L10.0867 0.240906C9.09411 -1.83442 6.09721 -1.90277 5.04113 0.209389L8.61884 1.99824ZM6.49085 1.99285L8.17258 5.38179L11.7557 3.60372L10.0739 0.214781L6.49085 1.99285ZM9.67938 6.47239L13.3996 7.00748L13.9691 3.04823L10.2489 2.51313L9.67938 6.47239ZM13.3802 7.0046C12.3338 6.84361 12.0937 5.62461 12.7033 5.01508L15.5317 7.84351C17.1095 6.26571 16.3598 3.41594 13.9884 3.05111L13.3802 7.0046ZM12.7169 5.00155L10.0415 7.62607L12.8426 10.4816L15.518 7.85704L12.7169 5.00155ZM9.47109 9.39363L10.1081 13.0883L14.0499 12.4087L13.4129 8.714L9.47109 9.39363ZM10.1023 13.0526C10.0257 12.5547 10.2721 12.1359 10.5696 11.9217C10.8647 11.7092 11.3468 11.6018 11.8066 11.8417L9.9563 15.388C12.0098 16.4594 14.4044 14.7108 14.0558 12.4444L10.1023 13.0526ZM11.8191 11.8483L8.50658 10.0901L6.63128 13.6233L9.94378 15.3815L11.8191 11.8483ZM6.63688 10.0872L3.2989 11.8453L5.163 15.3844L8.50098 13.6262L6.63688 10.0872ZM3.30582 11.8417C3.76559 11.6018 4.24764 11.7092 4.54277 11.9217C4.84024 12.1359 5.0867 12.5547 5.0101 13.0526L1.05661 12.4444C0.707942 14.7108 3.10263 16.4594 5.15608 15.388L3.30582 11.8417ZM5.00427 13.0883L5.64129 9.39363L1.69945 8.714L1.06243 12.4087L5.00427 13.0883ZM5.07092 7.62607L2.39544 5.00155L-0.405659 7.85704L2.26982 10.4816L5.07092 7.62607ZM2.40911 5.01508C3.01864 5.62461 2.77859 6.84361 1.73218 7.0046L1.12395 3.05111C-1.24746 3.41594 -1.99712 6.26571 -0.419322 7.84351L2.40911 5.01508ZM1.71091 7.00775L5.45658 6.47266L4.8909 2.51286L1.14522 3.04795L1.71091 7.00775ZM6.97063 5.37094L8.62687 1.98199L5.0331 0.225637L3.37685 3.61458L6.97063 5.37094Z" fill="#FFBB00"/>
</svg>
